<mxfile host="app.diagrams.net" modified="2023-08-29T19:25:33.880Z" agent="Mozilla/5.0 (Windows NT 10.0; Win64; x64) AppleWebKit/537.36 (KHTML, like Gecko) Chrome/114.0.0.0 YaBrowser/23.7.4.971 Yowser/2.5 Safari/537.36" etag="_7uI0x-bOg_hhFgeO7Wg" version="21.7.0" type="device">
  <diagram name="Страница — 1" id="1y623O5BNEkvK-RBlUeA">
    <mxGraphModel dx="1899" dy="1616" grid="1" gridSize="10" guides="1" tooltips="1" connect="1" arrows="1" fold="1" page="1" pageScale="1" pageWidth="827" pageHeight="1169" math="0" shadow="0">
      <root>
        <mxCell id="0" />
        <mxCell id="1" parent="0" />
        <mxCell id="G83xwrwfXBNvTgqCgAS6-16" style="edgeStyle=orthogonalEdgeStyle;rounded=0;orthogonalLoop=1;jettySize=auto;html=1;entryX=0.567;entryY=1.013;entryDx=0;entryDy=0;entryPerimeter=0;" edge="1" parent="1" source="G83xwrwfXBNvTgqCgAS6-1" target="G83xwrwfXBNvTgqCgAS6-4">
          <mxGeometry relative="1" as="geometry" />
        </mxCell>
        <mxCell id="G83xwrwfXBNvTgqCgAS6-18" style="edgeStyle=orthogonalEdgeStyle;rounded=0;orthogonalLoop=1;jettySize=auto;html=1;" edge="1" parent="1" source="G83xwrwfXBNvTgqCgAS6-1" target="G83xwrwfXBNvTgqCgAS6-11">
          <mxGeometry relative="1" as="geometry" />
        </mxCell>
        <mxCell id="G83xwrwfXBNvTgqCgAS6-21" style="edgeStyle=orthogonalEdgeStyle;rounded=0;orthogonalLoop=1;jettySize=auto;html=1;entryX=0.708;entryY=0.025;entryDx=0;entryDy=0;entryPerimeter=0;" edge="1" parent="1" source="G83xwrwfXBNvTgqCgAS6-1" target="G83xwrwfXBNvTgqCgAS6-13">
          <mxGeometry relative="1" as="geometry" />
        </mxCell>
        <mxCell id="G83xwrwfXBNvTgqCgAS6-22" style="edgeStyle=orthogonalEdgeStyle;rounded=0;orthogonalLoop=1;jettySize=auto;html=1;entryX=1;entryY=0.5;entryDx=0;entryDy=0;" edge="1" parent="1" source="G83xwrwfXBNvTgqCgAS6-1" target="G83xwrwfXBNvTgqCgAS6-12">
          <mxGeometry relative="1" as="geometry" />
        </mxCell>
        <mxCell id="G83xwrwfXBNvTgqCgAS6-24" style="edgeStyle=orthogonalEdgeStyle;rounded=0;orthogonalLoop=1;jettySize=auto;html=1;entryX=0.292;entryY=1.025;entryDx=0;entryDy=0;entryPerimeter=0;" edge="1" parent="1" source="G83xwrwfXBNvTgqCgAS6-1" target="G83xwrwfXBNvTgqCgAS6-10">
          <mxGeometry relative="1" as="geometry" />
        </mxCell>
        <mxCell id="G83xwrwfXBNvTgqCgAS6-1" value="Actor" style="shape=umlActor;verticalLabelPosition=bottom;verticalAlign=top;html=1;outlineConnect=0;" vertex="1" parent="1">
          <mxGeometry x="380" y="375" width="29" height="50" as="geometry" />
        </mxCell>
        <mxCell id="G83xwrwfXBNvTgqCgAS6-41" style="edgeStyle=orthogonalEdgeStyle;rounded=0;orthogonalLoop=1;jettySize=auto;html=1;entryX=1;entryY=0.5;entryDx=0;entryDy=0;" edge="1" parent="1" source="G83xwrwfXBNvTgqCgAS6-4" target="G83xwrwfXBNvTgqCgAS6-38">
          <mxGeometry relative="1" as="geometry" />
        </mxCell>
        <mxCell id="G83xwrwfXBNvTgqCgAS6-42" style="edgeStyle=orthogonalEdgeStyle;rounded=0;orthogonalLoop=1;jettySize=auto;html=1;" edge="1" parent="1" source="G83xwrwfXBNvTgqCgAS6-4" target="G83xwrwfXBNvTgqCgAS6-40">
          <mxGeometry relative="1" as="geometry" />
        </mxCell>
        <mxCell id="G83xwrwfXBNvTgqCgAS6-43" style="edgeStyle=orthogonalEdgeStyle;rounded=0;orthogonalLoop=1;jettySize=auto;html=1;entryX=1;entryY=0.5;entryDx=0;entryDy=0;" edge="1" parent="1" source="G83xwrwfXBNvTgqCgAS6-4" target="G83xwrwfXBNvTgqCgAS6-39">
          <mxGeometry relative="1" as="geometry" />
        </mxCell>
        <mxCell id="G83xwrwfXBNvTgqCgAS6-4" value="Управление" style="ellipse;whiteSpace=wrap;html=1;fillColor=#99CCFF;" vertex="1" parent="1">
          <mxGeometry x="280" y="255" width="120" height="80" as="geometry" />
        </mxCell>
        <mxCell id="G83xwrwfXBNvTgqCgAS6-34" style="edgeStyle=orthogonalEdgeStyle;rounded=0;orthogonalLoop=1;jettySize=auto;html=1;" edge="1" parent="1" source="G83xwrwfXBNvTgqCgAS6-10">
          <mxGeometry relative="1" as="geometry">
            <mxPoint x="469" y="210" as="targetPoint" />
          </mxGeometry>
        </mxCell>
        <mxCell id="G83xwrwfXBNvTgqCgAS6-37" style="edgeStyle=orthogonalEdgeStyle;rounded=0;orthogonalLoop=1;jettySize=auto;html=1;entryX=0.5;entryY=1;entryDx=0;entryDy=0;" edge="1" parent="1" source="G83xwrwfXBNvTgqCgAS6-10" target="G83xwrwfXBNvTgqCgAS6-32">
          <mxGeometry relative="1" as="geometry" />
        </mxCell>
        <mxCell id="G83xwrwfXBNvTgqCgAS6-10" value="Настройка" style="ellipse;whiteSpace=wrap;html=1;fillColor=#99CCFF;" vertex="1" parent="1">
          <mxGeometry x="409" y="255" width="120" height="80" as="geometry" />
        </mxCell>
        <mxCell id="G83xwrwfXBNvTgqCgAS6-48" style="edgeStyle=orthogonalEdgeStyle;rounded=0;orthogonalLoop=1;jettySize=auto;html=1;entryX=0;entryY=0.5;entryDx=0;entryDy=0;" edge="1" parent="1" source="G83xwrwfXBNvTgqCgAS6-11" target="G83xwrwfXBNvTgqCgAS6-44">
          <mxGeometry relative="1" as="geometry" />
        </mxCell>
        <mxCell id="G83xwrwfXBNvTgqCgAS6-49" style="edgeStyle=orthogonalEdgeStyle;rounded=0;orthogonalLoop=1;jettySize=auto;html=1;entryX=0;entryY=0.688;entryDx=0;entryDy=0;entryPerimeter=0;" edge="1" parent="1" source="G83xwrwfXBNvTgqCgAS6-11" target="G83xwrwfXBNvTgqCgAS6-45">
          <mxGeometry relative="1" as="geometry" />
        </mxCell>
        <mxCell id="G83xwrwfXBNvTgqCgAS6-50" style="edgeStyle=orthogonalEdgeStyle;rounded=0;orthogonalLoop=1;jettySize=auto;html=1;" edge="1" parent="1" source="G83xwrwfXBNvTgqCgAS6-11" target="G83xwrwfXBNvTgqCgAS6-46">
          <mxGeometry relative="1" as="geometry" />
        </mxCell>
        <mxCell id="G83xwrwfXBNvTgqCgAS6-52" style="edgeStyle=orthogonalEdgeStyle;rounded=0;orthogonalLoop=1;jettySize=auto;html=1;" edge="1" parent="1" source="G83xwrwfXBNvTgqCgAS6-11" target="G83xwrwfXBNvTgqCgAS6-47">
          <mxGeometry relative="1" as="geometry" />
        </mxCell>
        <mxCell id="G83xwrwfXBNvTgqCgAS6-11" value="Система авторизации" style="ellipse;whiteSpace=wrap;html=1;fillColor=#99CCFF;" vertex="1" parent="1">
          <mxGeometry x="490" y="360" width="120" height="80" as="geometry" />
        </mxCell>
        <mxCell id="G83xwrwfXBNvTgqCgAS6-28" style="edgeStyle=orthogonalEdgeStyle;rounded=0;orthogonalLoop=1;jettySize=auto;html=1;entryX=1;entryY=0.5;entryDx=0;entryDy=0;" edge="1" parent="1" source="G83xwrwfXBNvTgqCgAS6-12" target="G83xwrwfXBNvTgqCgAS6-25">
          <mxGeometry relative="1" as="geometry" />
        </mxCell>
        <mxCell id="G83xwrwfXBNvTgqCgAS6-29" style="edgeStyle=orthogonalEdgeStyle;rounded=0;orthogonalLoop=1;jettySize=auto;html=1;entryX=0.992;entryY=0.375;entryDx=0;entryDy=0;entryPerimeter=0;" edge="1" parent="1" source="G83xwrwfXBNvTgqCgAS6-12" target="G83xwrwfXBNvTgqCgAS6-26">
          <mxGeometry relative="1" as="geometry" />
        </mxCell>
        <mxCell id="G83xwrwfXBNvTgqCgAS6-30" style="edgeStyle=orthogonalEdgeStyle;rounded=0;orthogonalLoop=1;jettySize=auto;html=1;entryX=1;entryY=0.5;entryDx=0;entryDy=0;" edge="1" parent="1" source="G83xwrwfXBNvTgqCgAS6-12" target="G83xwrwfXBNvTgqCgAS6-27">
          <mxGeometry relative="1" as="geometry" />
        </mxCell>
        <mxCell id="G83xwrwfXBNvTgqCgAS6-12" value="Обслуживание" style="ellipse;whiteSpace=wrap;html=1;fillColor=#99CCFF;" vertex="1" parent="1">
          <mxGeometry x="180" y="360" width="120" height="80" as="geometry" />
        </mxCell>
        <mxCell id="G83xwrwfXBNvTgqCgAS6-68" style="edgeStyle=orthogonalEdgeStyle;rounded=0;orthogonalLoop=1;jettySize=auto;html=1;entryX=0.5;entryY=0;entryDx=0;entryDy=0;" edge="1" parent="1" source="G83xwrwfXBNvTgqCgAS6-13" target="G83xwrwfXBNvTgqCgAS6-63">
          <mxGeometry relative="1" as="geometry" />
        </mxCell>
        <mxCell id="G83xwrwfXBNvTgqCgAS6-69" style="edgeStyle=orthogonalEdgeStyle;rounded=0;orthogonalLoop=1;jettySize=auto;html=1;" edge="1" parent="1" source="G83xwrwfXBNvTgqCgAS6-13" target="G83xwrwfXBNvTgqCgAS6-65">
          <mxGeometry relative="1" as="geometry" />
        </mxCell>
        <mxCell id="G83xwrwfXBNvTgqCgAS6-70" style="edgeStyle=orthogonalEdgeStyle;rounded=0;orthogonalLoop=1;jettySize=auto;html=1;entryX=0.283;entryY=0.038;entryDx=0;entryDy=0;entryPerimeter=0;" edge="1" parent="1" source="G83xwrwfXBNvTgqCgAS6-13" target="G83xwrwfXBNvTgqCgAS6-66">
          <mxGeometry relative="1" as="geometry" />
        </mxCell>
        <mxCell id="G83xwrwfXBNvTgqCgAS6-71" style="edgeStyle=orthogonalEdgeStyle;rounded=0;orthogonalLoop=1;jettySize=auto;html=1;" edge="1" parent="1" source="G83xwrwfXBNvTgqCgAS6-13" target="G83xwrwfXBNvTgqCgAS6-67">
          <mxGeometry relative="1" as="geometry" />
        </mxCell>
        <mxCell id="G83xwrwfXBNvTgqCgAS6-72" style="edgeStyle=orthogonalEdgeStyle;rounded=0;orthogonalLoop=1;jettySize=auto;html=1;" edge="1" parent="1" source="G83xwrwfXBNvTgqCgAS6-13" target="G83xwrwfXBNvTgqCgAS6-64">
          <mxGeometry relative="1" as="geometry" />
        </mxCell>
        <mxCell id="G83xwrwfXBNvTgqCgAS6-13" value="Управление движением&lt;br&gt;с пульта" style="ellipse;whiteSpace=wrap;html=1;fillColor=#99CCFF;" vertex="1" parent="1">
          <mxGeometry x="260" y="505" width="120" height="80" as="geometry" />
        </mxCell>
        <mxCell id="G83xwrwfXBNvTgqCgAS6-25" value="Чистка контейнера" style="ellipse;whiteSpace=wrap;html=1;" vertex="1" parent="1">
          <mxGeometry x="10" y="270" width="120" height="80" as="geometry" />
        </mxCell>
        <mxCell id="G83xwrwfXBNvTgqCgAS6-26" value="Обслуживание щеток" style="ellipse;whiteSpace=wrap;html=1;" vertex="1" parent="1">
          <mxGeometry x="10" y="370" width="120" height="80" as="geometry" />
        </mxCell>
        <mxCell id="G83xwrwfXBNvTgqCgAS6-27" value="Обслуживание бака&amp;nbsp; с водой" style="ellipse;whiteSpace=wrap;html=1;" vertex="1" parent="1">
          <mxGeometry x="10" y="470" width="120" height="80" as="geometry" />
        </mxCell>
        <mxCell id="G83xwrwfXBNvTgqCgAS6-36" style="edgeStyle=orthogonalEdgeStyle;rounded=0;orthogonalLoop=1;jettySize=auto;html=1;entryX=0.5;entryY=1;entryDx=0;entryDy=0;" edge="1" parent="1" source="G83xwrwfXBNvTgqCgAS6-31" target="G83xwrwfXBNvTgqCgAS6-33">
          <mxGeometry relative="1" as="geometry" />
        </mxCell>
        <mxCell id="G83xwrwfXBNvTgqCgAS6-31" value="Проверка наличия обновлений" style="ellipse;whiteSpace=wrap;html=1;" vertex="1" parent="1">
          <mxGeometry x="409" y="130" width="120" height="80" as="geometry" />
        </mxCell>
        <mxCell id="G83xwrwfXBNvTgqCgAS6-32" value="Составление расписания уборки" style="ellipse;whiteSpace=wrap;html=1;" vertex="1" parent="1">
          <mxGeometry x="540" y="175" width="120" height="80" as="geometry" />
        </mxCell>
        <mxCell id="G83xwrwfXBNvTgqCgAS6-33" value="Установка обновлений" style="ellipse;whiteSpace=wrap;html=1;" vertex="1" parent="1">
          <mxGeometry x="409" y="20" width="120" height="80" as="geometry" />
        </mxCell>
        <mxCell id="G83xwrwfXBNvTgqCgAS6-54" style="edgeStyle=orthogonalEdgeStyle;rounded=0;orthogonalLoop=1;jettySize=auto;html=1;" edge="1" parent="1" source="G83xwrwfXBNvTgqCgAS6-38">
          <mxGeometry relative="1" as="geometry">
            <mxPoint x="-20" y="170" as="targetPoint" />
          </mxGeometry>
        </mxCell>
        <mxCell id="G83xwrwfXBNvTgqCgAS6-38" value="Начать уборку" style="ellipse;whiteSpace=wrap;html=1;" vertex="1" parent="1">
          <mxGeometry x="50" y="175" width="120" height="80" as="geometry" />
        </mxCell>
        <mxCell id="G83xwrwfXBNvTgqCgAS6-39" value="Остановить уборку" style="ellipse;whiteSpace=wrap;html=1;" vertex="1" parent="1">
          <mxGeometry x="120" y="80" width="120" height="80" as="geometry" />
        </mxCell>
        <mxCell id="G83xwrwfXBNvTgqCgAS6-40" value="Отправить на базу" style="ellipse;whiteSpace=wrap;html=1;" vertex="1" parent="1">
          <mxGeometry x="280" y="120" width="120" height="80" as="geometry" />
        </mxCell>
        <mxCell id="G83xwrwfXBNvTgqCgAS6-44" value="Зарегистрироваться" style="ellipse;whiteSpace=wrap;html=1;" vertex="1" parent="1">
          <mxGeometry x="660" y="255" width="120" height="80" as="geometry" />
        </mxCell>
        <mxCell id="G83xwrwfXBNvTgqCgAS6-45" value="Войти в систему" style="ellipse;whiteSpace=wrap;html=1;" vertex="1" parent="1">
          <mxGeometry x="660" y="345" width="120" height="80" as="geometry" />
        </mxCell>
        <mxCell id="G83xwrwfXBNvTgqCgAS6-46" value="Добавить устройство" style="ellipse;whiteSpace=wrap;html=1;" vertex="1" parent="1">
          <mxGeometry x="660" y="430" width="120" height="80" as="geometry" />
        </mxCell>
        <mxCell id="G83xwrwfXBNvTgqCgAS6-47" value="Удалить устройство" style="ellipse;whiteSpace=wrap;html=1;" vertex="1" parent="1">
          <mxGeometry x="490" y="480" width="120" height="80" as="geometry" />
        </mxCell>
        <mxCell id="G83xwrwfXBNvTgqCgAS6-59" style="edgeStyle=orthogonalEdgeStyle;rounded=0;orthogonalLoop=1;jettySize=auto;html=1;entryX=0.692;entryY=1.038;entryDx=0;entryDy=0;entryPerimeter=0;" edge="1" parent="1" source="G83xwrwfXBNvTgqCgAS6-53" target="G83xwrwfXBNvTgqCgAS6-56">
          <mxGeometry relative="1" as="geometry" />
        </mxCell>
        <mxCell id="G83xwrwfXBNvTgqCgAS6-60" style="edgeStyle=orthogonalEdgeStyle;rounded=0;orthogonalLoop=1;jettySize=auto;html=1;entryX=0.283;entryY=0.988;entryDx=0;entryDy=0;entryPerimeter=0;" edge="1" parent="1" source="G83xwrwfXBNvTgqCgAS6-53" target="G83xwrwfXBNvTgqCgAS6-57">
          <mxGeometry relative="1" as="geometry" />
        </mxCell>
        <mxCell id="G83xwrwfXBNvTgqCgAS6-61" style="edgeStyle=orthogonalEdgeStyle;rounded=0;orthogonalLoop=1;jettySize=auto;html=1;" edge="1" parent="1" source="G83xwrwfXBNvTgqCgAS6-53" target="G83xwrwfXBNvTgqCgAS6-55">
          <mxGeometry relative="1" as="geometry" />
        </mxCell>
        <mxCell id="G83xwrwfXBNvTgqCgAS6-62" style="edgeStyle=orthogonalEdgeStyle;rounded=0;orthogonalLoop=1;jettySize=auto;html=1;" edge="1" parent="1" source="G83xwrwfXBNvTgqCgAS6-53">
          <mxGeometry relative="1" as="geometry">
            <mxPoint x="-110" y="170" as="targetPoint" />
          </mxGeometry>
        </mxCell>
        <mxCell id="G83xwrwfXBNvTgqCgAS6-53" value="Выбор режима уборки" style="ellipse;whiteSpace=wrap;html=1;" vertex="1" parent="1">
          <mxGeometry x="-80" y="90" width="120" height="80" as="geometry" />
        </mxCell>
        <mxCell id="G83xwrwfXBNvTgqCgAS6-55" value="Влажная" style="ellipse;whiteSpace=wrap;html=1;" vertex="1" parent="1">
          <mxGeometry x="-250" y="10" width="120" height="80" as="geometry" />
        </mxCell>
        <mxCell id="G83xwrwfXBNvTgqCgAS6-56" value="Сухая" style="ellipse;whiteSpace=wrap;html=1;" vertex="1" parent="1">
          <mxGeometry x="-130" y="-40" width="120" height="80" as="geometry" />
        </mxCell>
        <mxCell id="G83xwrwfXBNvTgqCgAS6-57" value="Комбинированная" style="ellipse;whiteSpace=wrap;html=1;" vertex="1" parent="1">
          <mxGeometry x="10" y="-30" width="120" height="80" as="geometry" />
        </mxCell>
        <mxCell id="G83xwrwfXBNvTgqCgAS6-58" value="Повышенная мощность" style="ellipse;whiteSpace=wrap;html=1;" vertex="1" parent="1">
          <mxGeometry x="-240" y="120" width="120" height="80" as="geometry" />
        </mxCell>
        <mxCell id="G83xwrwfXBNvTgqCgAS6-63" value="Поворот налево" style="ellipse;whiteSpace=wrap;html=1;" vertex="1" parent="1">
          <mxGeometry x="110" y="550" width="120" height="80" as="geometry" />
        </mxCell>
        <mxCell id="G83xwrwfXBNvTgqCgAS6-64" value="Движение вперед" style="ellipse;whiteSpace=wrap;html=1;" vertex="1" parent="1">
          <mxGeometry x="180" y="630" width="120" height="80" as="geometry" />
        </mxCell>
        <mxCell id="G83xwrwfXBNvTgqCgAS6-65" value="Поворот направо" style="ellipse;whiteSpace=wrap;html=1;" vertex="1" parent="1">
          <mxGeometry x="430" y="590" width="120" height="80" as="geometry" />
        </mxCell>
        <mxCell id="G83xwrwfXBNvTgqCgAS6-66" value="Движение назад" style="ellipse;whiteSpace=wrap;html=1;" vertex="1" parent="1">
          <mxGeometry x="390" y="680" width="120" height="80" as="geometry" />
        </mxCell>
        <mxCell id="G83xwrwfXBNvTgqCgAS6-67" value="Движение по спирали на одном месте с повешенной мощностью" style="ellipse;whiteSpace=wrap;html=1;" vertex="1" parent="1">
          <mxGeometry x="270" y="700" width="120" height="80" as="geometry" />
        </mxCell>
      </root>
    </mxGraphModel>
  </diagram>
</mxfile>
